# xmcd CD database file
# Generated: Fri Oct 10 10:57:18 2003 by KSCD
# 
# Track frame offsets:
#       150
#       17265
#       39987
#       54585
#       75387
#       100655
#       115420
#       129165
#       154770
#       165467
#       186215
#       215250
#
# Disc length: 4440 seconds
#
# Revision: 1
# Processed by: cddbd v1.4PL0 Copyright (c) Steve Scherf et al.
# Submitted via: Kscd 1.3.3
#
DISCID=8511560c
DTITLE=Emmylou Harris - Stumble into Grace
DYEAR=1900
DGENRE=
TTITLE0=Here I am
TTITLE1=I will Dream
TTITLE2=Little Bird
TTITLE3=Time in Babylon
TTITLE4=Can you hear me now
TTITLE5=Strong Hand
TTITLE6=Jupiter Rising
TTITLE7=O Evangeline
TTITLE8=Plaisir d'Amour
TTITLE9=Lost unto this World
TTITLE10=Cup of Kindness
TTITLE11=-unknown--
EXTD=
EXTT0=
EXTT1=
EXTT2=
EXTT3=
EXTT4=
EXTT5=
EXTT6=
EXTT7=
EXTT8=
EXTT9=
EXTT10=
EXTT11=
PLAYORDER=
